<svg width="50" height="50" viewBox="0 0 50 50" fill="none" xmlns="http://www.w3.org/2000/svg">
<path d="M25 12.5C27.2916 12.5 29.1666 14.375 29.1666 16.6666C29.1666 18.9583 27.2916 20.8333 25 20.8333C22.7083 20.8333 20.8333 18.9583 20.8333 16.6666C20.8333 14.375 22.7083 12.5 25 12.5ZM25 33.3333C30.625 33.3333 37.0833 36.0208 37.5 37.5H12.5C12.9791 36 19.3958 33.3333 25 33.3333ZM25 8.33331C20.3958 8.33331 16.6666 12.0625 16.6666 16.6666C16.6666 21.2708 20.3958 25 25 25C29.6041 25 33.3333 21.2708 33.3333 16.6666C33.3333 12.0625 29.6041 8.33331 25 8.33331ZM25 29.1666C19.4375 29.1666 8.33331 31.9583 8.33331 37.5V41.6666H41.6666V37.5C41.6666 31.9583 30.5625 29.1666 25 29.1666Z" fill="white"/>
</svg>
